<mxfile host="app.diagrams.net" agent="Mozilla/5.0 (Windows NT 10.0; Win64; x64) AppleWebKit/537.36 (KHTML, like Gecko) Chrome/128.0.0.0 Safari/537.36" version="24.7.10">
  <diagram name="Page-1" id="1WE_iub1Ir06cl7lph2P">
    <mxGraphModel dx="2963" dy="1580" grid="1" gridSize="10" guides="1" tooltips="1" connect="1" arrows="1" fold="1" page="1" pageScale="1" pageWidth="850" pageHeight="1100" math="0" shadow="0">
      <root>
        <mxCell id="0" />
        <mxCell id="1" parent="0" />
        <mxCell id="p1yZqdw23dryFL5s0K7D-6" value="" style="edgeStyle=orthogonalEdgeStyle;rounded=0;orthogonalLoop=1;jettySize=auto;html=1;" edge="1" parent="1" source="p1yZqdw23dryFL5s0K7D-1" target="p1yZqdw23dryFL5s0K7D-5">
          <mxGeometry relative="1" as="geometry" />
        </mxCell>
        <mxCell id="p1yZqdw23dryFL5s0K7D-1" value="Ceiling, Floor" style="shape=parallelogram;perimeter=parallelogramPerimeter;whiteSpace=wrap;html=1;fixedSize=1;fontStyle=1" vertex="1" parent="1">
          <mxGeometry x="70" y="20" width="120" height="60" as="geometry" />
        </mxCell>
        <mxCell id="p1yZqdw23dryFL5s0K7D-8" value="" style="edgeStyle=orthogonalEdgeStyle;rounded=0;orthogonalLoop=1;jettySize=auto;html=1;" edge="1" parent="1" source="p1yZqdw23dryFL5s0K7D-5" target="p1yZqdw23dryFL5s0K7D-7">
          <mxGeometry relative="1" as="geometry" />
        </mxCell>
        <mxCell id="p1yZqdw23dryFL5s0K7D-5" value="Start" style="ellipse;whiteSpace=wrap;html=1;fillColor=#d5e8d4;strokeColor=#82b366;" vertex="1" parent="1">
          <mxGeometry x="70" y="120" width="120" height="80" as="geometry" />
        </mxCell>
        <mxCell id="p1yZqdw23dryFL5s0K7D-10" value="" style="edgeStyle=orthogonalEdgeStyle;rounded=0;orthogonalLoop=1;jettySize=auto;html=1;" edge="1" parent="1" source="p1yZqdw23dryFL5s0K7D-7" target="p1yZqdw23dryFL5s0K7D-9">
          <mxGeometry relative="1" as="geometry" />
        </mxCell>
        <mxCell id="p1yZqdw23dryFL5s0K7D-7" value="Player 1 sets &lt;b&gt;Floor&lt;/b&gt;" style="rounded=1;whiteSpace=wrap;html=1;" vertex="1" parent="1">
          <mxGeometry x="70" y="240" width="120" height="60" as="geometry" />
        </mxCell>
        <mxCell id="p1yZqdw23dryFL5s0K7D-12" value="" style="edgeStyle=orthogonalEdgeStyle;rounded=0;orthogonalLoop=1;jettySize=auto;html=1;" edge="1" parent="1" source="p1yZqdw23dryFL5s0K7D-9" target="p1yZqdw23dryFL5s0K7D-11">
          <mxGeometry relative="1" as="geometry" />
        </mxCell>
        <mxCell id="p1yZqdw23dryFL5s0K7D-9" value="Player 1 sets &lt;b&gt;Ceiling&lt;/b&gt;" style="rounded=1;whiteSpace=wrap;html=1;" vertex="1" parent="1">
          <mxGeometry x="70" y="340" width="120" height="60" as="geometry" />
        </mxCell>
        <mxCell id="p1yZqdw23dryFL5s0K7D-25" value="" style="edgeStyle=orthogonalEdgeStyle;rounded=0;orthogonalLoop=1;jettySize=auto;html=1;" edge="1" parent="1" source="p1yZqdw23dryFL5s0K7D-11" target="p1yZqdw23dryFL5s0K7D-23">
          <mxGeometry relative="1" as="geometry" />
        </mxCell>
        <mxCell id="p1yZqdw23dryFL5s0K7D-11" value="Player 1 sets &lt;b&gt;Answer &lt;/b&gt;between &lt;b&gt;Floor&lt;/b&gt;&amp;nbsp;and &lt;b&gt;Ceiling&lt;/b&gt;" style="rounded=1;whiteSpace=wrap;html=1;" vertex="1" parent="1">
          <mxGeometry x="70" y="440" width="120" height="60" as="geometry" />
        </mxCell>
        <mxCell id="p1yZqdw23dryFL5s0K7D-31" value="" style="edgeStyle=orthogonalEdgeStyle;rounded=0;orthogonalLoop=1;jettySize=auto;html=1;" edge="1" parent="1" source="p1yZqdw23dryFL5s0K7D-13" target="p1yZqdw23dryFL5s0K7D-15">
          <mxGeometry relative="1" as="geometry" />
        </mxCell>
        <mxCell id="p1yZqdw23dryFL5s0K7D-13" value="Player 2 sets &lt;b&gt;Guess &lt;/b&gt;at (&lt;b&gt;GFloor+GCeiling&lt;/b&gt;)/2&lt;br&gt;rounded to the integer" style="rounded=1;whiteSpace=wrap;html=1;" vertex="1" parent="1">
          <mxGeometry x="70" y="820" width="120" height="60" as="geometry" />
        </mxCell>
        <mxCell id="p1yZqdw23dryFL5s0K7D-17" value="Yes" style="edgeStyle=orthogonalEdgeStyle;rounded=0;orthogonalLoop=1;jettySize=auto;html=1;" edge="1" parent="1" source="p1yZqdw23dryFL5s0K7D-15" target="p1yZqdw23dryFL5s0K7D-16">
          <mxGeometry relative="1" as="geometry" />
        </mxCell>
        <mxCell id="p1yZqdw23dryFL5s0K7D-29" value="No" style="edgeStyle=orthogonalEdgeStyle;rounded=0;orthogonalLoop=1;jettySize=auto;html=1;" edge="1" parent="1" source="p1yZqdw23dryFL5s0K7D-15" target="p1yZqdw23dryFL5s0K7D-18">
          <mxGeometry relative="1" as="geometry" />
        </mxCell>
        <mxCell id="p1yZqdw23dryFL5s0K7D-15" value="Is&lt;b&gt;&amp;nbsp;Guess&lt;br&gt;&lt;/b&gt;=&lt;b&gt;Answer&lt;/b&gt;" style="rhombus;whiteSpace=wrap;html=1;" vertex="1" parent="1">
          <mxGeometry x="90" y="930" width="80" height="80" as="geometry" />
        </mxCell>
        <mxCell id="p1yZqdw23dryFL5s0K7D-38" value="" style="edgeStyle=orthogonalEdgeStyle;rounded=0;orthogonalLoop=1;jettySize=auto;html=1;" edge="1" parent="1" source="p1yZqdw23dryFL5s0K7D-16" target="p1yZqdw23dryFL5s0K7D-37">
          <mxGeometry relative="1" as="geometry" />
        </mxCell>
        <mxCell id="p1yZqdw23dryFL5s0K7D-16" value="Player 2 Wins" style="rounded=1;whiteSpace=wrap;html=1;" vertex="1" parent="1">
          <mxGeometry x="70" y="1100" width="120" height="60" as="geometry" />
        </mxCell>
        <mxCell id="p1yZqdw23dryFL5s0K7D-20" value="yes" style="edgeStyle=orthogonalEdgeStyle;rounded=0;orthogonalLoop=1;jettySize=auto;html=1;" edge="1" parent="1" source="p1yZqdw23dryFL5s0K7D-18" target="p1yZqdw23dryFL5s0K7D-19">
          <mxGeometry relative="1" as="geometry" />
        </mxCell>
        <mxCell id="p1yZqdw23dryFL5s0K7D-22" value="no" style="edgeStyle=orthogonalEdgeStyle;rounded=0;orthogonalLoop=1;jettySize=auto;html=1;" edge="1" parent="1" source="p1yZqdw23dryFL5s0K7D-18" target="p1yZqdw23dryFL5s0K7D-21">
          <mxGeometry relative="1" as="geometry" />
        </mxCell>
        <mxCell id="p1yZqdw23dryFL5s0K7D-18" value="Is &lt;b&gt;Guess&lt;/b&gt;&amp;nbsp;Higher than &lt;b&gt;Answer&lt;/b&gt;?" style="rhombus;whiteSpace=wrap;html=1;" vertex="1" parent="1">
          <mxGeometry x="225" y="915" width="110" height="110" as="geometry" />
        </mxCell>
        <mxCell id="p1yZqdw23dryFL5s0K7D-35" value="" style="edgeStyle=orthogonalEdgeStyle;rounded=0;orthogonalLoop=1;jettySize=auto;html=1;" edge="1" parent="1" source="p1yZqdw23dryFL5s0K7D-19" target="p1yZqdw23dryFL5s0K7D-33">
          <mxGeometry relative="1" as="geometry" />
        </mxCell>
        <mxCell id="p1yZqdw23dryFL5s0K7D-19" value="Set &lt;b&gt;GCeiling&lt;/b&gt; to &lt;b&gt;Guess&lt;/b&gt;" style="rounded=1;whiteSpace=wrap;html=1;" vertex="1" parent="1">
          <mxGeometry x="220" y="820" width="120" height="60" as="geometry" />
        </mxCell>
        <mxCell id="p1yZqdw23dryFL5s0K7D-34" style="edgeStyle=orthogonalEdgeStyle;rounded=0;orthogonalLoop=1;jettySize=auto;html=1;exitX=0.5;exitY=0;exitDx=0;exitDy=0;entryX=1;entryY=0.5;entryDx=0;entryDy=0;" edge="1" parent="1" source="p1yZqdw23dryFL5s0K7D-21" target="p1yZqdw23dryFL5s0K7D-33">
          <mxGeometry relative="1" as="geometry" />
        </mxCell>
        <mxCell id="p1yZqdw23dryFL5s0K7D-21" value="Set &lt;b&gt;GFloor&lt;/b&gt; to &lt;b&gt;Guess&lt;/b&gt;" style="rounded=1;whiteSpace=wrap;html=1;" vertex="1" parent="1">
          <mxGeometry x="390" y="940" width="120" height="60" as="geometry" />
        </mxCell>
        <mxCell id="p1yZqdw23dryFL5s0K7D-26" value="" style="edgeStyle=orthogonalEdgeStyle;rounded=0;orthogonalLoop=1;jettySize=auto;html=1;" edge="1" parent="1" source="p1yZqdw23dryFL5s0K7D-23" target="p1yZqdw23dryFL5s0K7D-24">
          <mxGeometry relative="1" as="geometry" />
        </mxCell>
        <mxCell id="p1yZqdw23dryFL5s0K7D-23" value="Set &lt;b&gt;GCeiling&lt;/b&gt; to &lt;b&gt;Ceiling&lt;/b&gt;" style="rounded=1;whiteSpace=wrap;html=1;" vertex="1" parent="1">
          <mxGeometry x="70" y="540" width="120" height="60" as="geometry" />
        </mxCell>
        <mxCell id="p1yZqdw23dryFL5s0K7D-28" value="" style="edgeStyle=orthogonalEdgeStyle;rounded=0;orthogonalLoop=1;jettySize=auto;html=1;" edge="1" parent="1" source="p1yZqdw23dryFL5s0K7D-24" target="p1yZqdw23dryFL5s0K7D-27">
          <mxGeometry relative="1" as="geometry" />
        </mxCell>
        <mxCell id="p1yZqdw23dryFL5s0K7D-24" value="Set &lt;b&gt;GFloor&lt;/b&gt; to &lt;b&gt;Floor&lt;/b&gt;" style="rounded=1;whiteSpace=wrap;html=1;" vertex="1" parent="1">
          <mxGeometry x="70" y="640" width="120" height="60" as="geometry" />
        </mxCell>
        <mxCell id="p1yZqdw23dryFL5s0K7D-30" value="" style="edgeStyle=orthogonalEdgeStyle;rounded=0;orthogonalLoop=1;jettySize=auto;html=1;" edge="1" parent="1" source="p1yZqdw23dryFL5s0K7D-27" target="p1yZqdw23dryFL5s0K7D-13">
          <mxGeometry relative="1" as="geometry" />
        </mxCell>
        <mxCell id="p1yZqdw23dryFL5s0K7D-27" value="" style="ellipse;whiteSpace=wrap;html=1;aspect=fixed;" vertex="1" parent="1">
          <mxGeometry x="110" y="740" width="40" height="40" as="geometry" />
        </mxCell>
        <mxCell id="p1yZqdw23dryFL5s0K7D-36" value="" style="edgeStyle=orthogonalEdgeStyle;rounded=0;orthogonalLoop=1;jettySize=auto;html=1;" edge="1" parent="1" source="p1yZqdw23dryFL5s0K7D-33" target="p1yZqdw23dryFL5s0K7D-27">
          <mxGeometry relative="1" as="geometry" />
        </mxCell>
        <mxCell id="p1yZqdw23dryFL5s0K7D-33" value="" style="ellipse;whiteSpace=wrap;html=1;aspect=fixed;" vertex="1" parent="1">
          <mxGeometry x="260" y="740" width="40" height="40" as="geometry" />
        </mxCell>
        <mxCell id="p1yZqdw23dryFL5s0K7D-37" value="End" style="ellipse;whiteSpace=wrap;html=1;fillColor=#f8cecc;strokeColor=#b85450;" vertex="1" parent="1">
          <mxGeometry x="70" y="1190" width="120" height="80" as="geometry" />
        </mxCell>
      </root>
    </mxGraphModel>
  </diagram>
</mxfile>
